<svg xmlns="http://www.w3.org/2000/svg" viewBox="0 0 812.9 612.9">
	<g transform="translate(6.6789703,-32.495842)">
		<path id="path9722" d="M257.1,266.8c-4.9,9.4-12.6,17.1-22.1,22l121.3,121.8l29.2-14.8L257.1,266.8z M417.1,427.4l-29.2,14.8 l61.5,61.7c4.9-9.4,12.6-17.1,22.1-22L417.1,427.4z"/>
		<path id="path9729" d="M557.5,315l-68.7,34.8l5.1,32.4l77.7-39.4C564.1,335.2,559.2,325.5,557.5,315z M448.9,370l-162.4,82.3 c7.5,7.6,12.4,17.3,14.1,27.8L454,402.4L448.9,370z"/>
		<path id="path9713" d="M396.7,167.3l-78.4,153l23.1,23.2l83-162C414,179.7,404.3,174.7,396.7,167.3z M298,360l-39.7,77.5 c10.5,1.8,20.2,6.7,27.7,14.2l35.1-68.5L298,360z"/>
		<path id="path1015" d="M234.3,289.1c-8,4-16.9,5.9-25.8,5.4c-1.7-0.1-3.3-0.3-5-0.5l23.2,148.2c8-4,16.9-5.9,25.8-5.4 c1.7,0.1,3.3,0.3,5,0.5L234.3,289.1z"/>
		<path id="path1674" d="M300.8,480.8c0.5,3.4,0.7,6.9,0.5,10.4c-0.4,7.1-2.3,14-5.5,20.4l148.2,23.8c-0.5-3.4-0.7-6.9-0.5-10.4 c0.4-7.1,2.3-14,5.5-20.4L300.8,480.8z"/>
		<path id="path1676" d="M572.1,343.3l-68.4,133.6c10.5,1.8,20.2,6.7,27.7,14.2l68.4-133.6C589.4,355.8,579.7,350.8,572.1,343.3z"/>
		<path id="path1678" d="M478.8,154.4c-4.9,9.4-12.6,17.1-22.1,22l105.9,106.4c4.9-9.4,12.6-17.1,22.1-22L478.8,154.4z"/>
		<path id="path1680" d="M382.1,138.9l-133.9,67.9c7.5,7.6,12.4,17.3,14.1,27.8l133.9-67.9C388.7,159.1,383.8,149.4,382.1,138.9z"/>
		<path id="path9758" d="M456.5,176.6c-8.1,4.1-17.1,6.1-26.2,5.6c-1.5-0.1-3-0.3-4.5-0.5l11.9,76l32.4,5.2L456.5,176.6z M444.5,301.8l28.1,179.6c7.9-3.9,16.7-5.7,25.4-5.2c1.8,0.1,3.6,0.3,5.4,0.6L476.8,307L444.5,301.8z"/>
		<path id="path9760" d="M262.4,235.2c0.6,3.5,0.7,7,0.6,10.6c-0.4,7-2.2,13.9-5.4,20.2l76,12.2l14.9-29.2L262.4,235.2z M392.7,256.1 l-14.9,29.2l179.6,28.9c-0.5-3.4-0.7-6.9-0.5-10.3c0.4-7.1,2.3-14.1,5.5-20.5L392.7,256.1z"/>
	</g>
	<g transform="translate(6.6789703,-32.495842)">
		<circle cx="433" cy="130.6" r="47"/>
		<circle cx="608.4" cy="306.6" r="47"/>
		<circle cx="495.1" cy="527.8" r="47"/>
		<circle cx="249.7" cy="488.4" r="47"/>
		<circle cx="211.3" cy="242.9" r="47"/>
	</g>
</svg>
